<svg width="20" height="20" viewBox="0 0 20 20" fill="none" xmlns="http://www.w3.org/2000/svg">
<g clip-path="url(#clip0_50_1361)">
<path d="M19.3923 7.8476C18.0998 5.7426 15.1598 2.21094 9.9998 2.21094C4.8398 2.21094 1.8998 5.7426 0.607299 7.8476C0.207739 8.49386 -0.00390625 9.23864 -0.00390625 9.99844C-0.00390625 10.7582 0.207739 11.503 0.607299 12.1493C1.8998 14.2543 4.8398 17.7859 9.9998 17.7859C15.1598 17.7859 18.0998 14.2543 19.3923 12.1493C19.7919 11.503 20.0035 10.7582 20.0035 9.99844C20.0035 9.23864 19.7919 8.49386 19.3923 7.8476ZM17.9715 11.2768C16.8615 13.0818 14.349 16.1193 9.9998 16.1193C5.65063 16.1193 3.13813 13.0818 2.02813 11.2768C1.79074 10.8926 1.66501 10.45 1.66501 9.99844C1.66501 9.54688 1.79074 9.10423 2.02813 8.7201C3.13813 6.9151 5.65063 3.8776 9.9998 3.8776C14.349 3.8776 16.8615 6.91177 17.9715 8.7201C18.2089 9.10423 18.3346 9.54688 18.3346 9.99844C18.3346 10.45 18.2089 10.8926 17.9715 11.2768Z" fill="#909190"/>
<path d="M9.99968 5.83203C9.17559 5.83203 8.37001 6.0764 7.6848 6.53424C6.9996 6.99208 6.46554 7.64283 6.15018 8.40418C5.83481 9.16554 5.7523 10.0033 5.91307 10.8116C6.07384 11.6198 6.47068 12.3623 7.0534 12.945C7.63612 13.5277 8.37855 13.9245 9.1868 14.0853C9.99505 14.2461 10.8328 14.1636 11.5942 13.8482C12.3555 13.5328 13.0063 12.9988 13.4641 12.3136C13.922 11.6284 14.1663 10.8228 14.1663 9.9987C14.165 8.89404 13.7256 7.835 12.9445 7.05388C12.1634 6.27277 11.1043 5.83335 9.99968 5.83203ZM9.99968 12.4987C9.50522 12.4987 9.02187 12.3521 8.61075 12.0774C8.19963 11.8027 7.8792 11.4122 7.68998 10.9554C7.50076 10.4986 7.45125 9.99593 7.54771 9.51097C7.64418 9.02602 7.88228 8.58056 8.23191 8.23093C8.58154 7.8813 9.027 7.6432 9.51195 7.54673C9.9969 7.45027 10.4996 7.49978 10.9564 7.689C11.4132 7.87822 11.8036 8.19865 12.0784 8.60977C12.3531 9.0209 12.4997 9.50425 12.4997 9.9987C12.4997 10.6617 12.2363 11.2976 11.7674 11.7665C11.2986 12.2353 10.6627 12.4987 9.99968 12.4987Z" fill="#909190"/>
</g>
<defs>
<clipPath id="clip0_50_1361">
<rect width="20" height="20" fill="white"/>
</clipPath>
</defs>
</svg>
