<svg width="20" height="20" viewBox="0 0 20 20" fill="none" xmlns="http://www.w3.org/2000/svg">
<path d="M15.8332 7.02V5.83333C15.8332 4.28624 15.2186 2.80251 14.1246 1.70854C13.0307 0.614582 11.5469 0 9.99984 0C8.45274 0 6.96901 0.614582 5.87505 1.70854C4.78109 2.80251 4.1665 4.28624 4.1665 5.83333V7.02C3.4243 7.34392 2.79258 7.8771 2.34859 8.55434C1.90459 9.23158 1.66757 10.0235 1.6665 10.8333V15.8333C1.66783 16.938 2.10724 17.997 2.88835 18.7782C3.66947 19.5593 4.72851 19.9987 5.83317 20H14.1665C15.2712 19.9987 16.3302 19.5593 17.1113 18.7782C17.8924 17.997 18.3318 16.938 18.3332 15.8333V10.8333C18.3321 10.0235 18.0951 9.23158 17.6511 8.55434C17.2071 7.8771 16.5754 7.34392 15.8332 7.02ZM5.83317 5.83333C5.83317 4.72826 6.27216 3.66846 7.05356 2.88705C7.83496 2.10565 8.89477 1.66667 9.99984 1.66667C11.1049 1.66667 12.1647 2.10565 12.9461 2.88705C13.7275 3.66846 14.1665 4.72826 14.1665 5.83333V6.66667H5.83317V5.83333ZM16.6665 15.8333C16.6665 16.4964 16.4031 17.1323 15.9343 17.6011C15.4654 18.0699 14.8295 18.3333 14.1665 18.3333H5.83317C5.17013 18.3333 4.53424 18.0699 4.0654 17.6011C3.59656 17.1323 3.33317 16.4964 3.33317 15.8333V10.8333C3.33317 10.1703 3.59656 9.53441 4.0654 9.06557C4.53424 8.59672 5.17013 8.33333 5.83317 8.33333H14.1665C14.8295 8.33333 15.4654 8.59672 15.9343 9.06557C16.4031 9.53441 16.6665 10.1703 16.6665 10.8333V15.8333Z" fill="#525453"/>
<path d="M9.99984 11.668C9.77883 11.668 9.56686 11.7558 9.41058 11.912C9.2543 12.0683 9.1665 12.2803 9.1665 12.5013V14.168C9.1665 14.389 9.2543 14.6009 9.41058 14.7572C9.56686 14.9135 9.77883 15.0013 9.99984 15.0013C10.2209 15.0013 10.4328 14.9135 10.5891 14.7572C10.7454 14.6009 10.8332 14.389 10.8332 14.168V12.5013C10.8332 12.2803 10.7454 12.0683 10.5891 11.912C10.4328 11.7558 10.2209 11.668 9.99984 11.668Z" fill="#525453"/>
</svg>
